<svg width="88" height="26" viewBox="0 0 88 26" fill="none" xmlns="http://www.w3.org/2000/svg">
<path d="M15.956 4.796C15.956 7.604 15.488 10.484 14.156 12.968C13.544 13.436 12.716 14.156 11.996 14.336C11.312 14.48 10.556 13.868 9.98 13.472C8.72 12.644 7.64 11.6 6.776 10.376C4.832 7.568 4.148 4.148 4.148 0.799998L0.8 4.796C0.8 7.64 1.304 10.592 2.708 13.112C3.968 15.488 7.388 18.476 8.36 18.404V26L11.708 22.04V16.172C12.716 15.236 13.616 14.084 14.516 13.04C15.488 11.852 16.496 10.664 17.288 9.332C18.764 6.776 19.268 3.752 19.304 0.799998L15.956 4.796ZM37.8673 22.04V0.799998H33.2593C31.6393 0.799998 29.9833 0.799998 28.3633 1.196C25.2313 1.952 23.5033 4.364 21.5593 6.74C20.5873 7.928 19.7953 9.116 19.5073 10.664C19.2193 12.248 19.3633 13.94 19.3633 15.56V26L22.7113 22.04V13.904C22.7113 11.312 22.3153 8.396 23.0353 5.876C26.1313 4.328 29.9473 4.796 34.5193 4.796V12.932H26.0233L22.7113 16.892H34.5193V26L37.8673 22.04ZM44.8238 0.799998L41.4758 4.796V26L44.8238 22.04V13.904C44.8238 11.312 44.3558 8.288 45.2558 5.804C49.5758 3.32 55.2278 5.732 56.4158 10.556C56.9918 12.932 56.6318 15.704 56.6318 18.152V26L59.9798 22.04V10.088C59.9798 8.54 60.0518 7.46 59.5838 6.02C59.2958 5.156 58.8638 4.364 58.2878 3.644C57.2078 2.276 55.6238 1.34 53.9318 0.979998C52.1318 0.583999 50.2238 0.907999 48.6038 1.808C47.0558 2.708 45.9398 4.22 44.8238 5.588V0.799998ZM73.9211 10.088L82.0571 0.799998L66.9371 16.568V0.799998L63.5891 4.796V26L66.9371 22.04V17.792L70.4651 13.868L78.7451 26L82.0571 22.04L73.9211 10.088ZM87.9253 22.04V0.799998L84.5773 4.76V26L87.9253 22.04Z" fill="white"/>
</svg>
